<?xml version="1.0" encoding="utf-8"?>
<!-- Generator: Adobe Illustrator 24.0.3, SVG Export Plug-In . SVG Version: 6.00 Build 0)  -->
<svg version="1.1" id="Layer_1" xmlns="http://www.w3.org/2000/svg" xmlns:xlink="http://www.w3.org/1999/xlink" x="0px" y="0px"
	 viewBox="0 0 1400 660.08" style="enable-background:new 0 0 1400 660.08;" xml:space="preserve">
<style type="text/css">
	.st0{clip-path:url(#XMLID_81_);}
	.st1{fill:url(#XMLID_83_);}
	.st2{fill:#DCC496;}
	.st3{fill:#FFFFFF;}
	.st4{fill:#DFE0E5;}
	.st5{fill:#C5D6D8;}
	.st6{fill:#283333;}
	.st7{fill:#717C7C;}
	.st8{fill:#454C4C;}
	.st9{fill:#D1DFE0;}
	.st10{fill:#E2F4F7;}
	.st11{fill:#C2B59B;}
	.st12{fill:#6DB2AB;}
	.st13{fill:#A0AFAE;}
	.st14{opacity:0.5;}
	.st15{opacity:0.7;}
</style>
<g id="XMLID_78_">
	<defs>
		<rect id="XMLID_31_" width="1400" height="660.08"/>
	</defs>
	<clipPath id="XMLID_81_">
		<use xlink:href="#XMLID_31_"  style="overflow:visible;"/>
	</clipPath>
	<g id="XMLID_1_" class="st0">
		<linearGradient id="XMLID_83_" gradientUnits="userSpaceOnUse" x1="700" y1="-2.0212" x2="700" y2="630.5189">
			<stop  offset="0" style="stop-color:#00AEEF"/>
			<stop  offset="1" style="stop-color:#D2F4F9"/>
		</linearGradient>
		<rect id="XMLID_72_" class="st1" width="1400" height="660.08"/>
		<path id="XMLID_128_" class="st2" d="M-3.02,889.09c0.18-0.42,0.1-0.2,0.62-0.67C-2.61,888.64-2.81,888.87-3.02,889.09z"/>
		<path id="XMLID_105_" class="st3" d="M1267.66,539.63c-4.82-2.83-10.51-3.41-16-2.38c-8.21,1.54-20.91-9.76-26.44-13.31
			c-4.8-3.08-5.56-8.81-12.53-11.04c-10.41-3.33-22.61,4.96-33.38,3.79c4.63-29.19-14.9-16.77-32.11-18.1
			c18.96-58.16-79.55-84.27-94.22-31.54c-2.84,10.21,3.5,20.82-7.99,28.09c-6.76,4.28-17.5-1.34-26.05,1.37
			c-14.19,4.5-23.23,20.4-26.3,34.18c-16.48-0.59-35.79,1.5-49.65,10.3c-1.29,0.82-4.18,2.29-7.14,4h338.59
			C1272.99,543.01,1270.43,541.26,1267.66,539.63z"/>
		<g id="XMLID_102_">
			<path id="XMLID_104_" class="st4" d="M1150.22,514.05c8.47-1.74,18.01-10.65,27.32-14.02c-5.32-6.21-18.39-0.51-30.34-1.43
				c0.08-0.25,0.14-0.49,0.22-0.74C1139.95,506.94,1130.21,518.16,1150.22,514.05z"/>
			<path id="XMLID_106_" class="st4" d="M1076.55,487.54c7.47-13.92-13.29-24.26-15.34-34.54c-0.07-0.36-0.11-0.71-0.13-1.07
				c-3.6,4.05-6.4,9.06-8.09,15.12c-2.69,9.68,2.85,19.7-6.34,26.92c0.63,0.02,1.26,0.03,1.89,0.03
				C1056.18,494,1072.24,495.56,1076.55,487.54z"/>
			<path id="XMLID_110_" class="st4" d="M1041.25,531.3c13.17-13.34-16.68-23.33-34.83-26.89c-6.47,6.48-10.94,15.49-13.2,24
				C1007.15,532.4,1032.25,540.41,1041.25,531.3z"/>
		</g>
		<g id="XMLID_98_">
			<path id="XMLID_99_" class="st3" d="M865.19,563.89c-5.36-0.08-9.27,4.21-14.96,3.89c18.17-22.97-28.05-4.99-32.92-5.92
				c4.43-25.5-6.1-37.59-29.48-20.02c-19.67,14.78-34.35,27.55-60.75,29.25h162.45c-4.89-0.56-10.52-2.23-15.49-3.22
				C870.1,567.08,870.35,563.96,865.19,563.89z"/>
			<path id="XMLID_100_" class="st3" d="M895.08,571.09h-5.54C891.54,571.32,893.43,571.36,895.08,571.09z"/>
		</g>
		<g id="XMLID_108_">
			<path id="XMLID_111_" class="st4" d="M-41.26,174.79c6.37,0.55,12.11,0.56,17.39,0.12L-41.26,174.79z"/>
			<path id="XMLID_112_" class="st4" d="M304.16,159.33c-0.15-3.54-0.94-7.64-0.77-11.16c-18.15,2.63-42.06,15.98-59.3,8.01
				c11.64-29.96,38.29-63.73-16.68-61.89c-37.82,1.27-78.66,43.91-112.19,41.03c2.88-39.91-52.91-18.97-69.58-3.78
				c-23.5,21.42-37.84,40.73-69.51,43.37l414.65,2.88C372,157.69,331.16,160.72,304.16,159.33z"/>
		</g>
		<g id="XMLID_46_">
			<polygon id="XMLID_29_" class="st5" points="1098.88,253.17 1068.24,250.5 1049.57,253.61 1066.73,261.05 			"/>
			
				<ellipse id="XMLID_16_" transform="matrix(0.0871 -0.9962 0.9962 0.0871 120.354 1035.1278)" class="st6" cx="624.96" cy="451.9" rx="12.72" ry="14.79"/>
			<path id="XMLID_63_" class="st6" d="M630.42,389.42c0,0,2.12,10.9,6.06,12.73c0,0-3.64,17.81-7.23,21.04
				c-3.59,3.23-4.76,10.27-4.76,10.27l11.6-3.68l0.83-9.48l3.24,0.28l10.45-4.13l0.36-4.12l-3.65-9.22l8.06-0.48l1.53,5.18
				l6.94-3.55l0.23-2.65l5.6-6.34L630.42,389.42z M648.23,413.25l-7.14,3.54l-3.54-0.31l2.8-11.63l2.93,0.26L648.23,413.25z"/>
			
				<ellipse id="XMLID_22_" transform="matrix(0.0871 -0.9962 0.9962 0.0871 251.0588 1080.0398)" class="st6" cx="714.82" cy="403.04" rx="13.71" ry="15.94"/>
			<path id="XMLID_23_" class="st7" d="M761.82,385.26l-0.59,6.74c-0.26,2.95-2.27,5.45-5.1,6.32
				c-11.76,3.65-42.61,12.28-56.26,7.25c-17.05-6.29-16.34-18.07-9.17-23.2s17.93-7.39,37.41-6.97c11.39,0.25,21.19,1.23,27.36,2
				C759.36,377.89,762.16,381.36,761.82,385.26z"/>
			<g id="XMLID_15_">
				<polygon id="XMLID_17_" class="st8" points="596.35,381.84 576.08,384.67 574.17,371.46 				"/>
				<polygon id="XMLID_14_" class="st5" points="572.51,365.98 576.08,384.67 566.27,379.21 561.36,360.25 				"/>
				<g id="XMLID_34_">
					<polygon id="XMLID_49_" class="st6" points="575.29,380.55 572.51,365.98 566.26,362.77 568.31,377.19 					"/>
				</g>
			</g>
			<path id="XMLID_10_" class="st6" d="M539.14,319.82l4.67-13.05c0,0-15.8-54.42-26.96-67.07c0,0-4.92,6.5-5.4,12
				c-0.48,5.5,25.19,69.51,25.19,69.51L539.14,319.82z"/>
			<path id="XMLID_12_" class="st6" d="M540.76,341.73c0,0-4,23.44-7.35,34.61c-3.35,11.16-11.23,33.43-11.23,33.43
				s4.98,15.48,8.31,9.04c3.33-6.44,4.06-47.62,8.76-59.79c4.7-12.17,5.51-16.93,5.51-16.93L540.76,341.73z"/>
			<polygon id="XMLID_2_" class="st9" points="603.53,194.44 653.11,306.43 666.16,302.03 617.06,193.64 			"/>
			<polygon id="XMLID_51_" class="st6" points="666.16,302.03 617.06,193.64 603.53,194.44 613.07,215.97 630.63,230.2 
				662.91,303.13 			"/>
			<path id="XMLID_4_" class="st10" d="M546.86,312.97c0,0,0.25-6.26,11.85-9.97c11.6-3.71,113.64-26.55,149.13-28.5
				c35.49-1.94,332.67,2.31,385.26,1.76c52.59-0.54,135.06-1.11,143.31-0.39c8.25,0.72,13.75,12.48-26.53,24.99
				c-40.28,12.51-257.96,71.26-394.33,89.61c-136.37,18.36-211.69,10.59-249.82-21.84C527.61,336.23,546.86,312.97,546.86,312.97z"
				/>
			<path id="XMLID_57_" class="st5" d="M1238.15,276.21c-96.48,20.65-193.96,36.57-291.99,47.72c-0.02-10.72-11.3-19.04-21.4-24.14
				c-49.38-24.96-105.6-39.23-160.89-41.21c-2.6,11.36-2.55,25.28-6.04,38.01c-3.24,11.82-7.16,28.05-14.67,27.4
				c-4.46,0.11-12.44-4.38-16.54-6.15c-25.68-11.07-47.96-21.84-77.03-33.22c21.22,9.14,43.56,21.66,64.78,30.81
				c6.34,2.73,12.59,3.58,12.56,10.49c-0.03,8.41-10.55,11.99-18.88,13.2c-7.19,1.05-14.37,2.09-21.56,3.14
				c-19.97,0.55-39.94,0.9-59.92,1.05c-20.69,0.16-41.74,0.05-61.52-6.01c-8.05-2.46-15.92-6.07-22.96-10.77
				c-0.75,9.94,3.17,24.71,23.65,42.12c38.13,32.42,113.44,40.19,249.82,21.84c136.37-18.36,354.05-77.1,394.33-89.61
				C1247.24,289.27,1245.22,278.32,1238.15,276.21z"/>
			<path id="XMLID_20_" class="st11" d="M911.06,316.24c-79.24,37.84-168.34,54.82-255.95,48.77
				c94.83,19.86,197.99,2.55,283.14-43.67C930.45,318.98,918.87,318.6,911.06,316.24z"/>
			<g id="XMLID_71_">
				<path id="XMLID_79_" class="st12" d="M762.09,274c-1.92,16.2-6.08,31.95-12.85,46.57c-2.18,4.56-9.25,3.94-13.81,1.76
					c-26.77-13.03-84.85-38.36-87.11-38.97c-39.63,7.5-82.34,17.32-89.6,19.64c-11.6,3.71-11.85,9.97-11.85,9.97
					s-7.45,9.01-3.89,23.63c12.11,7.59,26.6,10.76,40.75,13.26c130.63,23.11,247.57,2.99,381.08-74.36
					C895.54,274.87,815.04,274.09,762.09,274z"/>
			</g>
			<path id="XMLID_33_" class="st3" d="M661.24,289.95c-38.17,4.96-75.6,15.55-110.71,31.31c-1.91,0.86-3.88,1.74-5.97,1.74
				c-3.78-0.01-6.61-3.88-4.1-7.03c1.56-1.96,9.04-2.09,11.45-2.82c12.02-3.64,23.7-8.09,35.89-11.28
				C612.14,295.49,636.41,293.18,661.24,289.95z"/>
			<path id="XMLID_7_" class="st6" d="M766.67,267.18c0,0,5.8,32.07,4.57,49.58l61.76-0.14c0,0,3.9-10.64-5.22-38.75
				C818.66,249.76,766.67,267.18,766.67,267.18z"/>
			<path id="XMLID_61_" class="st13" d="M946.16,323.93c-0.02-10.72-11.3-19.04-21.4-24.14c-49.38-24.96-105.6-39.23-160.89-41.21
				c-0.75,3.29-1.37,6.67-1.95,10.13c0,0,74.04,118.88,84.8,117.14c47.89-7.76,102.42-19.14,154.6-31.14l-36.96-32.89
				C958.29,322.53,952.23,323.24,946.16,323.93z"/>
			<g id="XMLID_47_">
				<path id="XMLID_48_" class="st7" d="M558.87,340.28c-0.88-6.75,0.26-13.61-0.9-20.31c-1.34-7.71-6.35-8.5-10.71-8.5
					c-0.36,0.92-0.39,1.5-0.39,1.5s-19.25,23.25,18.88,55.68c24.33,20.69,63.81,31.34,124.63,31.57
					c-47.43-4.43-89.52-15.17-115.24-37.19C567.81,356.76,560.11,349.84,558.87,340.28z"/>
			</g>
			<path id="XMLID_5_" class="st10" d="M741.95,385.83c0,0-12.52,2.86-12.69,4.83c-0.17,1.96,4.66,5.55,16.1,1.41
				c11.44-4.15,134.86-84.79,134.86-84.79l-15.32-1.34L741.95,385.83z"/>
			<path id="XMLID_53_" class="st6" d="M848.17,328.1c7.35-4.75,13.91-9.01,19.16-12.42c0.08-0.05,0.15-0.1,0.23-0.15
				c0.44-0.29,0.88-0.57,1.3-0.84c0.1-0.07,0.2-0.13,0.3-0.2c1.41-0.92,2.71-1.76,3.88-2.53c0.02-0.01,0.04-0.03,0.06-0.04
				c0.75-0.49,1.46-0.95,2.1-1.37c0.09-0.06,0.17-0.11,0.26-0.17c0.26-0.17,0.5-0.33,0.74-0.48c0.09-0.06,0.17-0.11,0.26-0.17
				c0.5-0.33,0.96-0.62,1.36-0.89c0.07-0.05,0.15-0.1,0.22-0.15c0.22-0.14,0.42-0.27,0.6-0.39c0,0,0.01-0.01,0.01-0.01
				c0.12-0.08,0.23-0.15,0.34-0.22c0.14-0.09,0.27-0.18,0.39-0.25c0.32-0.21,0.55-0.36,0.69-0.45c0.04-0.02,0.07-0.04,0.09-0.06
				c0.03-0.02,0.05-0.03,0.05-0.03l-8.93-0.78l-6.39-0.56l-29.58,19.22l-2.67,9.69c-38.1,26.49-86.13,56.71-100.32,58.63
				c2.57,0.81,6.83,0.83,13.03-1.41c7.65-2.77,65.29-39.7,102.7-63.9C848.1,328.15,848.14,328.13,848.17,328.1z"/>
			<path id="XMLID_6_" class="st7" d="M759.03,269.77c0,0-5.68,37.8-11.24,47.11c-5.56,9.31-29.47-12.67-64.64-24.65
				c-30.63-10.43-29.08-10.26-29.08-10.26s27.66-31.13,40.7-37.7C707.8,237.69,752.13,250.17,759.03,269.77z"/>
			<g id="XMLID_39_">
				<path id="XMLID_41_" class="st6" d="M726.98,275.7c-6.55,2.27-13.09,4.55-19.64,6.82c-8.2,2.85-16.47,5.73-24.16,9.72
					c35.15,11.98,59.04,33.94,64.6,24.64c5.17-8.66,10.45-41.96,11.16-46.57C748.57,268.63,737.24,272.14,726.98,275.7z"/>
			</g>
			<path id="XMLID_9_" class="st10" d="M508.78,332.07c-0.58-0.41-0.56-1.28,0.04-1.67c6.28-3.98,34.27-21.28,41.36-18.03
				c0,0,7.69,0.38,8,13.76c0.17,7.11-1.48,12.97-3.07,16.91c-1.33,3.31-4.87,5.16-8.37,4.42
				C538.34,345.7,522.09,341.33,508.78,332.07z"/>
			<g id="XMLID_55_">
				<path id="XMLID_58_" class="st8" d="M558.18,326.13c-0.08-3.42-0.64-5.98-1.43-7.91c0,0.01,0,0.01,0,0.02
					c0.44,6.2-2.18,12.79-7.4,16.17c-6.92,4.48-16.04,2.48-23.9,0.01c-5.51-1.73-11.4-3.61-17.04-3.46
					c-0.13,0.4-0.01,0.86,0.37,1.12c13.31,9.26,29.56,13.63,37.96,15.39c3.49,0.73,7.04-1.11,8.37-4.42
					C556.7,339.11,558.35,333.24,558.18,326.13z"/>
			</g>
			<path id="XMLID_8_" class="st10" d="M580.2,336.75c0.05,7-4.49,12.71-10.13,12.75c-5.64,0.04-10.26-5.61-10.31-12.61
				c-0.05-7,4.49-12.71,10.13-12.75C575.53,324.11,580.15,329.75,580.2,336.75z"/>
			<path id="XMLID_11_" class="st6" d="M584.49,330.15c0.05,7-4.49,12.71-10.13,12.75c-5.64,0.04-10.26-5.61-10.31-12.61
				c-0.05-7,4.49-12.71,10.13-12.75C579.83,317.51,584.44,323.15,584.49,330.15z"/>
			<path id="XMLID_13_" class="st6" d="M548.9,332.15l0.6-2.38c0.46-1.8,1.98-3.13,3.82-3.34c8.93-1.03,34.31-3.68,34.38-0.76
				c0.09,3.55-3.35,2.57-13.44,4.56C564.18,332.21,548.9,332.15,548.9,332.15z"/>
			<path id="XMLID_56_" class="st10" d="M587.64,325.43c-0.4,0.48-0.91,0.85-1.59,1.06c-11.75,2.99-24.69,4.92-36.5,3.12
				c-0.02,0.05-0.04,0.1-0.05,0.15l-0.6,2.38c0,0,15.28,0.06,25.37-1.93c10.09-1.99,13.52-1.01,13.44-4.56
				C587.71,325.58,587.68,325.51,587.64,325.43z"/>
			<path id="XMLID_18_" class="st13" d="M668.55,435.41l-0.55,6.25c-0.24,2.73-2.11,5.05-4.73,5.86
				c-10.91,3.38-39.52,11.39-52.18,6.72c-15.82-5.84-15.16-16.76-8.51-21.52c6.65-4.76,16.63-6.86,34.7-6.47
				c10.57,0.23,19.65,1.14,25.38,1.86C666.27,428.57,668.87,431.79,668.55,435.41z"/>
			<path id="XMLID_67_" class="st5" d="M611.56,428.53c-3.6,1.04-6.51,2.43-8.97,4.19c-6.65,4.76-7.31,15.69,8.51,21.52
				c7.68,2.83,21.23,1,33.14-1.64c-0.6-1.68-1.35-3.3-2.29-4.87C635.29,436.12,623.79,431.06,611.56,428.53z"/>
			
				<ellipse id="XMLID_25_" transform="matrix(0.0871 -0.9962 0.9962 0.0871 318.3469 1267.7185)" class="st6" cx="850.86" cy="460.16" rx="13.71" ry="15.94"/>
			<path id="XMLID_26_" class="st10" d="M817.82,390.7L837.9,434c0,0,5.47-1.6,9.7,0.85c4.24,2.45,2.93-4.57,2.93-4.57l-16.22-41.24
				c-0.8-2.04-2.5-3.59-4.6-4.22c-2.1-0.63-4.91-1.23-7.69-1.07C818.55,383.94,816.35,387.55,817.82,390.7z"/>
			<path id="XMLID_64_" class="st7" d="M834.32,389.03c-0.8-2.04-2.5-3.59-4.6-4.22c-2.1-0.63-4.91-1.23-7.69-1.07
				c-1.73,0.1-3.14,1.04-3.94,2.35l24.07,22.86L834.32,389.03z"/>
			<path id="XMLID_27_" class="st10" d="M1132.11,295.41c3.52-4.2,21.63-14.88,114.47-6.77l57.57,34.12c0,0-63.02,7.85-72.67,6.12
				c-9.01-1.62-87.48-24.61-98.86-30.86C1131.68,297.5,1131.42,296.24,1132.11,295.41z"/>
			<g id="XMLID_52_">
				<path id="XMLID_66_" class="st6" d="M1131.73,296.36c-0.05,0.65,0.26,1.32,0.89,1.66c11.38,6.25,89.84,29.24,98.86,30.86
					c9.64,1.73,72.67-6.12,72.67-6.12s-60.65,4.49-71.63,4.43C1222.78,327.13,1148.34,302,1131.73,296.36z"/>
			</g>
			<path id="XMLID_82_" class="st5" d="M1307.25,132.54c-1.54,1.14-3.47,2.52-5.83,4.16c-1.2,0.84-3.68,4.98-7,11.36
				c-0.19,0.38-0.39,0.76-0.59,1.15c-17.92,34.8-58.24,129.35-58.24,129.35l-34.37-0.4l-0.63,0l-0.01,0l-212.3-2.44
				c0,0,150.24-34.51,170.54-49.36c13.74-10.06,48.94-53.88,70.24-81.14c0.29-0.38,0.59-0.76,0.88-1.13
				c4.49-5.75,8.31-10.7,11.12-14.36c3.23-4.2,8.37-6.46,13.65-6l51.32,4.49C1308.25,128.39,1309.05,131.23,1307.25,132.54z"/>
			<g id="XMLID_65_">
				<path id="XMLID_68_" class="st10" d="M1306.04,128.2l-51.32-4.49c-5.28-0.46-10.42,1.8-13.65,6
					c-16.1,20.96-65.37,84.28-82.25,96.64c-20.3,14.85-170.54,49.36-170.54,49.36l29.62,0.34c42.91-10.32,132.22-32.72,147.54-43.93
					c16.88-12.35,66.15-75.68,82.25-96.64c3.23-4.2,8.37-6.46,13.65-6l44.74,3.91c0.41-0.3,0.81-0.59,1.18-0.86
					C1309.05,131.22,1308.25,128.39,1306.04,128.2z"/>
			</g>
			<g id="XMLID_36_">
				<path id="XMLID_37_" class="st13" d="M691.92,245.93c-12.2,7.94-32.34,29.93-36.91,34.99c11.87-3.23,23.74-6.45,35.6-9.68
					C692.57,262.97,692.97,254.36,691.92,245.93z"/>
			</g>
			<path id="XMLID_40_" class="st13" d="M707.2,255.48c-5.08,2.77-11.31,10.46-5.46,15.21c0.81,0.65,5.26,1.44,10.15,2.19
				c2.62-5.7,7.46-10.66,13.14-13.8c-0.51-2.51-1.17-4.99-1.98-7.42C717.6,252.23,712,252.85,707.2,255.48z"/>
			<g id="XMLID_38_" class="st14">
				<path id="XMLID_42_" class="st3" d="M753.08,260.93c-2.71-2.69-6.08-5.15-9.84-7.34c-16.24,12.86-30.1,28.74-40.57,46.62
					c3.38,1.59,6.61,3.21,9.67,4.79C723.11,288.01,737,273.01,753.08,260.93z"/>
			</g>
			<g id="XMLID_30_" class="st15">
				<path id="XMLID_44_" class="st3" d="M748.97,257.39c-0.57-0.43-1.16-0.86-1.76-1.28c-17.53,11.35-30.99,27.97-41.63,45.5
					c1.05,0.51,2.08,1.02,3.09,1.53C717.85,285.07,731.46,267.75,748.97,257.39z"/>
			</g>
			<path id="XMLID_3_" class="st10" d="M577.46,122.7c-1.74-0.95-3.63-1.56-5.6-1.81c-15.23-1.88-83.24-9.35-101.79,4.29
				c-20.94,15.39,269.74,147.07,349.25,174.8s197.26,59.4,210.22,60.53c12.96,1.13,86.79-1.32,84.31-6.88
				c-2.48-5.56-178.6-69.04-221.38-82.28c0,0-37.61-17.98-66.96-28.63C825.51,242.71,631.7,152.43,577.46,122.7z"/>
			<g id="XMLID_73_">
				<path id="XMLID_77_" class="st6" d="M821.87,297.45c-77.35-26.98-354.53-152.32-350.26-173.28c-0.54,0.32-1.06,0.66-1.54,1.01
					c-20.94,15.39,269.74,147.07,349.25,174.8s197.26,59.4,210.22,60.53c12.96,1.13,86.79-1.32,84.31-6.88
					c-0.05-0.11-0.18-0.25-0.38-0.42c-13.68,4.06-70.19,5.75-81.38,4.77C1019.13,356.85,901.38,325.18,821.87,297.45z"/>
			</g>
			<g id="XMLID_43_">
				<path id="XMLID_45_" class="st9" d="M1086.06,346.52c-94.8-30.37-195.44-71.38-284.42-114.98
					c-53.51-25.09-181.68-85.55-224.17-108.84c-1.74-0.95-3.62-1.88-5.6-1.8C488.44,124.05,977.78,360.03,1086.06,346.52z"/>
			</g>
			<path id="XMLID_54_" class="st8" d="M786.69,321.74c-13.99,1.08-27.98,2.16-41.98,3.24
				C755.55,332.18,772.36,330.08,786.69,321.74z"/>
			<path id="XMLID_32_" class="st10" d="M786.69,321.74c-13.99,1.08-27.98,2.16-41.98,3.24
				C758.19,329.76,773.89,328.13,786.69,321.74z"/>
			<path id="XMLID_50_" class="st3" d="M490.55,139.55c0.46,0.04,0.94,0.04,1.35-0.16c1.47-0.71,0.75-3.03-0.5-4.08
				c-1.6-1.35-3.68-2.01-5.37-3.25s-3.02-3.49-2.13-5.39c0.77-1.64,2.77-2.22,4.54-2.62c4.45-1.01,8.9-2.02,13.35-3.03
				c-7.02,1.59-18.39-0.24-24.17,5.8C472.31,132.36,484.69,139.1,490.55,139.55z"/>
			<path id="XMLID_24_" class="st10" d="M833.04,465.63c0,0-16.75-7.7-11.1-18.48c5.65-10.79,18.82-15.39,34.48-17.97
				c12.25-2.02,30.13,0.14,37.34,1.18c2.06,0.3,3.79,1.74,4.41,3.72c1.18,3.76,2.33,10.01-0.98,14.37
				C892.14,455.07,861.04,471.35,833.04,465.63z"/>
			<path id="XMLID_59_" class="st5" d="M898.16,434.08c-0.62-1.99-2.35-3.43-4.41-3.72c-3.86-0.56-10.78-1.43-18.25-1.82
				c4.29,3.55,8.26,7.42,11.72,11.55c-5.39,3.29-10.97,5.95-16.74,8.04c-4.01-7.13-9.06-13.56-15.26-18.75
				c-4.49,0.78-8.76,1.73-12.69,2.96c2.55,0.55,5.02,1.36,7.08,3.27c5.22,4.52,9.05,9.68,12.07,15.24
				c-4.24,1.09-8.58,1.92-13.02,2.49c-9.68,1.33-18.82,0.15-27.87-1.23c0.48,8.1,12.25,13.51,12.25,13.51
				c28,5.71,59.11-10.57,64.14-17.18C900.49,444.09,899.33,437.84,898.16,434.08z"/>
			<path id="XMLID_19_" class="st3" d="M861.85,431.56c-12.72,0.85-25.18,5.31-35.54,12.74c-0.66,0.48-1.34,0.99-1.69,1.73
				c-0.34,0.74-0.22,1.76,0.49,2.18C834.61,439.65,849.22,433.58,861.85,431.56z"/>
			<path id="XMLID_21_" class="st3" d="M639.53,430.54c-10.29-0.53-20.65,0.45-30.65,2.91c-2.11,0.52-4.25,1.13-6.01,2.4
				c-0.02,0.01-0.03,0.03-0.05,0.04c-1.8,1.33-0.2,4.17,1.89,3.37c0.83-0.32,1.64-0.66,2.39-1.07
				C616.72,432.87,628.57,431.31,639.53,430.54z"/>
			<path id="XMLID_35_" class="st3" d="M1099.02,348.89c-12.35-2.69-24.81-5.39-37.45-5.6s-25.64,2.23-36.24,9.11
				c5.15,3.47,12.61,1.28,18.63-0.28C1061.86,347.49,1080.75,346.08,1099.02,348.89z"/>
			<g id="XMLID_28_">
				<path id="XMLID_76_" class="st10" d="M1294.42,148.07c-0.19,0.38-0.39,0.76-0.59,1.15l-34.06-2.1l-1.26-0.08l-29.45-1.81
					c0.29-0.38,0.59-0.76,0.88-1.13L1294.42,148.07z"/>
			</g>
			<g id="XMLID_69_">
				<polygon id="XMLID_70_" class="st10" points="1201.22,278.16 1200.02,278.15 1258.85,146.25 1259.93,146.73 				"/>
			</g>
			<path id="XMLID_75_" class="st12" d="M1180.49,204.55c-8.92,10.1-16.7,18.16-21.68,21.8c-20.3,14.85-170.54,49.36-170.54,49.36
				l212.3,2.44l0.01,0l0.63,0l34.37,0.4c0,0,19.51-45.67,37.18-84.78C1250.91,194.59,1205.26,199.94,1180.49,204.55z"/>
			<path id="XMLID_74_" class="st12" d="M1192.67,190.37c-3.05,3.63-6.06,7.17-8.98,10.52c2.39-0.61,63.28-10.7,91.07-11.52
				c2.4-5.27,4.75-10.4,7.02-15.26C1261.32,174.05,1210.65,182.4,1192.67,190.37z"/>
		</g>
	</g>
</g>
</svg>
