<?xml version="1.0" encoding="utf-8"?>
<!-- Generator: Adobe Illustrator 24.0.3, SVG Export Plug-In . SVG Version: 6.00 Build 0)  -->
<svg version="1.1" id="Layer_1" xmlns="http://www.w3.org/2000/svg" xmlns:xlink="http://www.w3.org/1999/xlink" x="0px" y="0px"
	 viewBox="0 0 162 63.58" style="enable-background:new 0 0 162 63.58;" xml:space="preserve">
<g>
	<path d="M15.42,25.81c-0.42-0.64-0.83-1.11-1.25-1.41c-0.42-0.31-0.82-0.46-1.21-0.46c-0.49,0-0.89,0.22-1.21,0.66
		c-0.31,0.44-0.47,1.01-0.47,1.72c0,0.49,0.08,0.89,0.23,1.21c0.16,0.32,0.36,0.59,0.61,0.83s0.54,0.43,0.86,0.6
		c0.32,0.17,0.63,0.35,0.94,0.55c1.25,0.78,2.16,1.83,2.73,3.14c0.58,1.31,0.87,3.01,0.87,5.12c0,1.42-0.13,2.7-0.38,3.85
		c-0.25,1.15-0.62,2.13-1.11,2.95c-0.49,0.82-1.08,1.46-1.79,1.91c-0.71,0.45-1.51,0.68-2.4,0.68c-1.85,0-3.57-1.04-5.16-3.12
		l1.63-5.79c0.57,0.95,1.13,1.66,1.69,2.13c0.56,0.46,1.11,0.7,1.65,0.7c0.62,0,1.09-0.27,1.39-0.81c0.3-0.54,0.46-1.15,0.46-1.83
		c0-0.42-0.04-0.78-0.12-1.08c-0.08-0.31-0.21-0.59-0.39-0.84c-0.18-0.26-0.42-0.5-0.71-0.72c-0.29-0.22-0.65-0.46-1.06-0.73
		c-0.49-0.29-0.98-0.62-1.45-0.97c-0.47-0.35-0.9-0.83-1.26-1.41c-0.37-0.59-0.67-1.33-0.9-2.22s-0.34-2.02-0.34-3.39
		s0.12-2.61,0.36-3.72c0.24-1.11,0.58-2.07,1.01-2.86s0.97-1.41,1.6-1.85s1.33-0.66,2.11-0.66c0.73,0,1.48,0.19,2.28,0.57
		c0.79,0.38,1.55,0.94,2.28,1.67L15.42,25.81z"/>
	<path d="M23.75,30.14l4.65-11.4h4.71l-5.82,13.09l6.36,14.56h-4.94l-4.96-11.99v11.99h-3.81V18.73h3.81V30.14z"/>
	<path d="M38.88,33.11l-5.35-14.38h4.55l2.72,7.55l2.7-7.55h4.55L42.7,33.11v13.27h-3.81V33.11z"/>
	<path d="M53.22,46.38h-3.81V18.73h6.07c1.65,0,2.91,0.81,3.78,2.42c0.88,1.61,1.31,3.89,1.31,6.82s-0.44,5.21-1.31,6.82
		c-0.88,1.61-2.14,2.42-3.78,2.42h-2.26V46.38z M53.22,31.42h1.26c1.4,0,2.1-1.15,2.1-3.45c0-2.3-0.7-3.45-2.1-3.45h-1.26V31.42z"/>
	<path d="M71.35,41.58h-5.45l-0.88,4.8h-4.07l5.58-27.65h4.16l5.58,27.65h-4.07L71.35,41.58z M70.34,36.12l-1.71-9.2l-1.71,9.2
		H70.34z"/>
	<path d="M90.17,46.38h-4.75l-3.64-10.63v10.63h-3.81V18.73h5.93c0.82,0,1.53,0.23,2.14,0.68c0.61,0.45,1.11,1.07,1.51,1.85
		c0.39,0.78,0.69,1.69,0.89,2.71s0.3,2.13,0.3,3.3c0,2.1-0.27,3.81-0.81,5.12c-0.54,1.31-1.33,2.19-2.38,2.66L90.17,46.38z
		 M81.78,31.09h0.72c0.75,0,1.33-0.29,1.73-0.88c0.4-0.59,0.6-1.43,0.6-2.53s-0.2-1.94-0.6-2.53c-0.4-0.59-0.98-0.88-1.73-0.88
		h-0.72V31.09z"/>
	<path d="M97.34,24.82v21.56h-3.81V24.82H90.4v-6.09h10.08v6.09H97.34z"/>
	<path d="M102.17,46.38V18.73h3.81l7.04,16.91V18.73h3.79v27.65h-3.79l-7.04-16.91v16.91H102.17z"/>
	<path d="M128.24,24.82h-4.53v4.62h4.28v6.09h-4.28v4.77h4.53v6.09h-8.35V18.73h8.35V24.82z"/>
	<path d="M143.18,46.38h-4.75l-3.64-10.63v10.63h-3.81V18.73h5.93c0.82,0,1.53,0.23,2.14,0.68c0.61,0.45,1.11,1.07,1.51,1.85
		c0.4,0.78,0.69,1.69,0.9,2.71c0.2,1.03,0.3,2.13,0.3,3.3c0,2.1-0.27,3.81-0.81,5.12c-0.54,1.31-1.33,2.19-2.38,2.66L143.18,46.38z
		 M134.79,31.09h0.72c0.75,0,1.33-0.29,1.73-0.88c0.4-0.59,0.6-1.43,0.6-2.53s-0.2-1.94-0.6-2.53c-0.4-0.59-0.98-0.88-1.73-0.88
		h-0.72V31.09z"/>
	<path d="M152.83,25.81c-0.42-0.64-0.83-1.11-1.25-1.41s-0.82-0.46-1.21-0.46c-0.49,0-0.89,0.22-1.21,0.66
		c-0.31,0.44-0.47,1.01-0.47,1.72c0,0.49,0.08,0.89,0.23,1.21c0.16,0.32,0.36,0.59,0.61,0.83s0.54,0.43,0.86,0.6
		c0.32,0.17,0.63,0.35,0.94,0.55c1.25,0.78,2.16,1.83,2.73,3.14c0.58,1.31,0.87,3.01,0.87,5.12c0,1.42-0.13,2.7-0.38,3.85
		c-0.25,1.15-0.62,2.13-1.11,2.95c-0.49,0.82-1.08,1.46-1.79,1.91s-1.51,0.68-2.4,0.68c-1.86,0-3.57-1.04-5.16-3.12l1.63-5.79
		c0.57,0.95,1.13,1.66,1.69,2.13c0.56,0.46,1.11,0.7,1.65,0.7c0.62,0,1.09-0.27,1.39-0.81c0.3-0.54,0.46-1.15,0.46-1.83
		c0-0.42-0.04-0.78-0.12-1.08c-0.08-0.31-0.21-0.59-0.39-0.84c-0.18-0.26-0.42-0.5-0.71-0.72c-0.29-0.22-0.65-0.46-1.06-0.73
		c-0.49-0.29-0.98-0.62-1.45-0.97c-0.47-0.35-0.89-0.83-1.26-1.41c-0.37-0.59-0.67-1.33-0.89-2.22c-0.23-0.89-0.34-2.02-0.34-3.39
		s0.12-2.61,0.36-3.72c0.24-1.11,0.58-2.07,1.01-2.86c0.43-0.79,0.97-1.41,1.59-1.85s1.33-0.66,2.11-0.66
		c0.73,0,1.48,0.19,2.28,0.57c0.79,0.38,1.55,0.94,2.28,1.67L152.83,25.81z"/>
</g>
<rect x="5.83" y="7.79" width="149.48" height="5.49"/>
<rect x="5.83" y="52.02" width="149.48" height="5.49"/>
</svg>
